<?xml version="1.0" encoding="UTF-8"?>
<svg xmlns="http://www.w3.org/2000/svg" width="300" height="200" viewBox="0 0 300 200">
  <!-- Rising sun (partially hidden by horizon) -->
  <circle cx="250" cy="150" r="40" fill="#fb923c" opacity="0.7" />
  
  <!-- Sun rays -->
  <g stroke="#fbbf24" stroke-width="2" opacity="0.6" stroke-linecap="round">
    <!-- Long rays -->
    <line x1="250" y1="70" x2="250" y2="90" />
    <line x1="320" y1="150" x2="300" y2="150" />
    <line x1="180" y1="150" x2="200" y2="150" />
    
    <!-- Diagonal rays -->
    <line x1="310" y1="90" x2="295" y2="105" />
    <line x1="190" y1="90" x2="205" y2="105" />
    <line x1="310" y1="210" x2="295" y2="195" />
    <line x1="190" y1="210" x2="205" y2="195" />
    
    <!-- Medium rays -->
    <line x1="280" y1="80" x2="270" y2="90" />
    <line x1="220" y1="80" x2="230" y2="90" />
    <line x1="320" y1="120" x2="305" y2="125" />
    <line x1="180" y1="120" x2="195" y2="125" />
  </g>
  
  <!-- Mountain silhouettes -->
  <g fill="#374151" opacity="0.4">
    <polygon points="0,180 50,120 100,140 150,100 200,130 250,110 300,140 300,200 0,200" />
  </g>
  
  <!-- Soft clouds -->
  <g fill="#ffffff" opacity="0.5">
    <!-- Cloud 1 -->
    <ellipse cx="80" cy="50" rx="20" ry="8" />
    <ellipse cx="95" cy="45" rx="15" ry="6" />
    
    <!-- Cloud 2 -->
    <ellipse cx="160" cy="70" rx="25" ry="10" />
    <ellipse cx="180" cy="65" rx="18" ry="7" />
  </g>
</svg>