<?xml version="1.0" encoding="UTF-8"?>
<svg xmlns="http://www.w3.org/2000/svg" width="300" height="200" viewBox="0 0 300 200">
  <!-- Setting sun -->
  <circle cx="70" cy="130" r="35" fill="#fb7185" opacity="0.6" />
  <circle cx="70" cy="130" r="25" fill="#fbbf24" opacity="0.7" />
  
  <!-- Clouds -->
  <g fill="#f97316" opacity="0.5">
    <!-- Cloud 1 - around sun -->
    <ellipse cx="120" cy="120" rx="25" ry="8" />
    <ellipse cx="140" cy="115" rx="20" ry="6" />
    
    <!-- Cloud 2 - upper -->
    <ellipse cx="200" cy="60" rx="30" ry="10" />
    <ellipse cx="220" cy="55" rx="25" ry="8" />
    
    <!-- Cloud 3 - lower -->
    <ellipse cx="180" cy="140" rx="35" ry="12" />
    <ellipse cx="210" cy="135" rx="28" ry="10" />
  </g>
  
  <!-- Additional warm cloud layers -->
  <g fill="#fbbf24" opacity="0.4">
    <ellipse cx="115" cy="125" rx="20" ry="6" />
    <ellipse cx="185" cy="145" rx="30" ry="8" />
    <ellipse cx="205" cy="65" rx="25" ry="7" />
  </g>
  
  <!-- Birds flying -->
  <g stroke="#64748b" stroke-width="1.5" fill="none" opacity="0.6">
    <path d="M240 80 Q245 75 250 80" />
    <path d="M250 80 Q255 75 260 80" />
    <path d="M220 90 Q225 85 230 90" />
    <path d="M230 90 Q235 85 240 90" />
  </g>
</svg>