<?xml version="1.0" encoding="UTF-8"?>
<svg xmlns="http://www.w3.org/2000/svg" width="300" height="200" viewBox="0 0 300 200">
  <!-- Stars (fewer than night, just appearing) -->
  <g fill="#fbbf24" opacity="0.6">
    <circle cx="60" cy="30" r="1" />
    <circle cx="100" cy="25" r="0.8" />
    <circle cx="140" cy="40" r="1.2" />
    <circle cx="200" cy="20" r="0.9" />
    <circle cx="50" cy="80" r="1.1" />
    <circle cx="120" cy="90" r="0.7" />
    <circle cx="260" cy="60" r="1" />
    <circle cx="280" cy="100" r="0.8" />
  </g>
  
  <!-- Crescent moon -->
  <g>
    <!-- Full moon circle -->
    <circle cx="220" cy="50" r="22" fill="#f8fafc" opacity="0.9" />
    <!-- Dark overlay to create crescent -->
    <circle cx="228" cy="47" r="20" fill="transparent" opacity="0" />
  </g>
  
  <!-- City silhouette -->
  <g fill="#1e293b" opacity="0.6">
    <!-- Buildings -->
    <rect x="0" y="140" width="40" height="60" />
    <rect x="45" y="120" width="30" height="80" />
    <rect x="80" y="135" width="25" height="65" />
    <rect x="110" y="125" width="35" height="75" />
    <rect x="150" y="145" width="20" height="55" />
    <rect x="175" y="130" width="30" height="70" />
    <rect x="210" y="150" width="25" height="50" />
    <rect x="240" y="135" width="30" height="65" />
    <rect x="275" y="140" width="25" height="60" />
    
    <!-- Building details (lit windows) -->
    <rect x="5" y="145" width="4" height="4" fill="#fbbf24" opacity="0.7" />
    <rect x="15" y="150" width="4" height="4" fill="#fbbf24" opacity="0.7" />
    <rect x="25" y="155" width="4" height="4" fill="#fbbf24" opacity="0.7" />
    <rect x="50" y="130" width="4" height="4" fill="#fbbf24" opacity="0.7" />
    <rect x="60" y="135" width="4" height="4" fill="#fbbf24" opacity="0.7" />
    <rect x="115" y="140" width="4" height="4" fill="#fbbf24" opacity="0.7" />
    <rect x="125" y="145" width="4" height="4" fill="#fbbf24" opacity="0.7" />
  </g>
</svg>