<?xml version="1.0" encoding="UTF-8"?>
<svg xmlns="http://www.w3.org/2000/svg" width="300" height="200" viewBox="0 0 300 200">
  <!-- Sun -->
  <circle cx="80" cy="60" r="30" fill="#fbbf24" opacity="0.8" />
  
  <!-- Sun rays -->
  <g stroke="#fbbf24" stroke-width="3" opacity="0.7" stroke-linecap="round">
    <!-- Main rays -->
    <line x1="80" y1="10" x2="80" y2="25" />
    <line x1="130" y1="60" x2="115" y2="60" />
    <line x1="80" y1="110" x2="80" y2="95" />
    <line x1="30" y1="60" x2="45" y2="60" />
    
    <!-- Diagonal rays -->
    <line x1="115.4" y1="25.4" x2="106.2" y2="34.6" />
    <line x1="115.4" y1="94.6" x2="106.2" y2="85.4" />
    <line x1="44.6" y1="94.6" x2="53.8" y2="85.4" />
    <line x1="44.6" y1="25.4" x2="53.8" y2="34.6" />
  </g>
  
  <!-- Clouds -->
  <g fill="#ffffff" opacity="0.6">
    <!-- Cloud 1 -->
    <circle cx="180" cy="40" r="12" />
    <circle cx="190" cy="40" r="15" />
    <circle cx="200" cy="40" r="10" />
    <circle cx="185" cy="30" r="8" />
    
    <!-- Cloud 2 -->
    <circle cx="240" cy="80" r="10" />
    <circle cx="250" cy="80" r="12" />
    <circle cx="260" cy="80" r="8" />
    <circle cx="250" cy="72" r="6" />
  </g>
</svg>