<svg viewBox="0 0 200 120" xmlns="http://www.w3.org/2000/svg">
  <defs>
    <!-- Cloud filter for soft shadows -->
    <filter id="softShadow" x="-50%" y="-50%" width="200%" height="200%">
      <feGaussianBlur in="SourceAlpha" stdDeviation="1.5"/>
      <feOffset dx="1" dy="1" result="offset"/>
      <feComponentTransfer>
        <feFuncA type="linear" slope="0.3"/>
      </feComponentTransfer>
      <feMerge> 
        <feMergeNode/>
        <feMergeNode in="SourceGraphic"/> 
      </feMerge>
    </filter>
  </defs>
  
  <!-- Fluffy clouds -->
  <g filter="url(#softShadow)">
    <!-- Cloud 1 -->
    <ellipse cx="45" cy="25" rx="12" ry="6" fill="#ffffff" opacity="0.9"/>
    <ellipse cx="52" cy="22" rx="15" ry="8" fill="#ffffff" opacity="0.9"/>
    <ellipse cx="60" cy="25" rx="10" ry="5" fill="#ffffff" opacity="0.9"/>
    
    <!-- Cloud 2 -->
    <ellipse cx="150" cy="35" rx="8" ry="4" fill="#ffffff" opacity="0.8"/>
    <ellipse cx="156" cy="32" rx="12" ry="6" fill="#ffffff" opacity="0.8"/>
    <ellipse cx="162" cy="35" rx="9" ry="4" fill="#ffffff" opacity="0.8"/>
  </g>
  
  <!-- Tree -->
  <rect x="25" y="65" width="6" height="15" fill="#8d6e63" rx="3"/>
  <ellipse cx="28" cy="62" rx="15" ry="12" fill="#4caf50"/>
  <ellipse cx="22" cy="58" rx="8" ry="6" fill="#66bb6a"/>
  <ellipse cx="34" cy="58" rx="8" ry="6" fill="#66bb6a"/>
  
  <!-- Hammock between trees (implied second tree) -->
  <ellipse cx="160" cy="62" rx="12" ry="10" fill="#4caf50"/>
  <rect x="157" y="65" width="5" height="15" fill="#8d6e63" rx="2"/>
  
  <!-- Hammock -->
  <path d="M 38 70 Q 80 75 122 70" stroke="#d84315" stroke-width="2" fill="none"/>
  <path d="M 38 72 Q 80 77 122 72" stroke="#d84315" stroke-width="2" fill="none"/>
  
  <!-- Hammock rope -->
  <line x1="38" y1="68" x2="31" y2="62" stroke="#795548" stroke-width="1"/>
  <line x1="122" y1="68" x2="157" y2="62" stroke="#795548" stroke-width="1"/>
  
  <!-- Person relaxing in hammock -->
  <ellipse cx="80" cy="73" rx="8" ry="3" fill="#ffcc80"/>
  <ellipse cx="78" cy="70" rx="3" ry="2" fill="#ffab91"/>
  
  <!-- Book in hand -->
  <rect x="83" y="69" width="4" height="6" fill="#ff7043" rx="0.5"/>
  <line x1="83" y1="72" x2="87" y2="72" stroke="#ffffff" stroke-width="0.5"/>
  
  <!-- Flowers in grass -->
  <g>
    <!-- Flower 1 -->
    <circle cx="100" cy="88" r="2" fill="#e91e63"/>
    <circle cx="98" cy="86" r="1.5" fill="#f48fb1"/>
    <circle cx="102" cy="86" r="1.5" fill="#f48fb1"/>
    <circle cx="100" cy="84" r="1.5" fill="#f48fb1"/>
    <circle cx="100" cy="90" r="1.5" fill="#f48fb1"/>
    <line x1="100" y1="88" x2="100" y2="95" stroke="#4caf50" stroke-width="1"/>
    
    <!-- Flower 2 -->
    <circle cx="130" cy="92" r="1.8" fill="#9c27b0"/>
    <circle cx="128" cy="90" r="1.3" fill="#ce93d8"/>
    <circle cx="132" cy="90" r="1.3" fill="#ce93d8"/>
    <circle cx="130" cy="88" r="1.3" fill="#ce93d8"/>
    <circle cx="130" cy="94" r="1.3" fill="#ce93d8"/>
    <line x1="130" y1="92" x2="130" y2="98" stroke="#4caf50" stroke-width="1"/>
  </g>
  
  <!-- Butterflies -->
  <g transform="translate(70,45)">
    <ellipse cx="0" cy="0" rx="3" ry="1.5" fill="#ff9800" opacity="0.8"/>
    <ellipse cx="0" cy="2" rx="2" ry="1" fill="#ff9800" opacity="0.8"/>
    <ellipse cx="4" cy="0" rx="3" ry="1.5" fill="#ffc107" opacity="0.8"/>
    <ellipse cx="4" cy="2" rx="2" ry="1" fill="#ffc107" opacity="0.8"/>
    <line x1="2" y1="1" x2="2" y2="3" stroke="#333" stroke-width="0.5"/>
  </g>
  
  <!-- Sun rays -->
  <g transform="translate(170,15)" opacity="0.6">
    <line x1="0" y1="-8" x2="0" y2="-15" stroke="#fdd835" stroke-width="1"/>
    <line x1="6" y1="-6" x2="10" y2="-10" stroke="#fdd835" stroke-width="1"/>
    <line x1="8" y1="0" x2="15" y2="0" stroke="#fdd835" stroke-width="1"/>
    <line x1="6" y1="6" x2="10" y2="10" stroke="#fdd835" stroke-width="1"/>
  </g>
  
  <!-- Partial sun -->
  <circle cx="170" cy="15" r="8" fill="#ffeb3b" opacity="0.9"/>
</svg>