<?xml version="1.0" encoding="UTF-8"?>
<svg xmlns="http://www.w3.org/2000/svg" width="300" height="200" viewBox="0 0 300 200">
  <!-- Computer Monitor -->
  <rect x="180" y="60" width="80" height="50" rx="4" fill="#374151" opacity="0.7" />
  <rect x="185" y="65" width="70" height="40" fill="#3b82f6" opacity="0.6" />
  
  <!-- Computer screen content -->
  <rect x="190" y="70" width="25" height="4" fill="#ffffff" opacity="0.8" />
  <rect x="190" y="78" width="35" height="3" fill="#ffffff" opacity="0.6" />
  <rect x="190" y="84" width="20" height="3" fill="#ffffff" opacity="0.6" />
  <rect x="190" y="90" width="30" height="3" fill="#ffffff" opacity="0.6" />
  
  <!-- Monitor stand -->
  <rect x="215" y="110" width="10" height="15" fill="#64748b" opacity="0.7" />
  <rect x="205" y="125" width="30" height="5" rx="2" fill="#64748b" opacity="0.7" />
  
  <!-- Keyboard -->
  <rect x="170" y="135" width="100" height="20" rx="3" fill="#475569" opacity="0.6" />
  <g fill="#e2e8f0" opacity="0.7">
    <rect x="175" y="140" width="8" height="4" rx="1" />
    <rect x="185" y="140" width="8" height="4" rx="1" />
    <rect x="195" y="140" width="8" height="4" rx="1" />
    <rect x="205" y="140" width="8" height="4" rx="1" />
    <rect x="215" y="140" width="8" height="4" rx="1" />
    <rect x="225" y="140" width="8" height="4" rx="1" />
    <rect x="235" y="140" width="8" height="4" rx="1" />
    <rect x="245" y="140" width="8" height="4" rx="1" />
    <rect x="255" y="140" width="8" height="4" rx="1" />
    
    <rect x="175" y="148" width="12" height="4" rx="1" />
    <rect x="190" y="148" width="50" height="4" rx="1" />
    <rect x="245" y="148" width="18" height="4" rx="1" />
  </g>
  
  <!-- Charts/Documents -->
  <g fill="#4f46e5" opacity="0.6">
    <rect x="40" y="100" width="8" height="30" />
    <rect x="52" y="90" width="8" height="40" />
    <rect x="64" y="80" width="8" height="50" />
    <rect x="76" y="95" width="8" height="35" />
  </g>
  
  <!-- Coffee cup -->
  <ellipse cx="120" cy="140" rx="8" ry="6" fill="#8b5cf6" opacity="0.6" />
  <rect x="112" y="134" width="16" height="12" fill="#8b5cf6" opacity="0.6" />
  <path d="M128 137 Q135 137 135 142 Q135 147 128 147" fill="none" stroke="#8b5cf6" stroke-width="2" opacity="0.6" />
</svg>